<svg width="875" height="1180" viewBox="0 0 875 1180" fill="none" xmlns="http://www.w3.org/2000/svg">
<path fill-rule="evenodd" clip-rule="evenodd" d="M437.5 0.000584614C679.126 0.000584614 875 194.998 875 435.534C875 530.524 844.451 618.416 792.602 689.995C774.172 715.443 755.693 736.461 734.358 755.866C691.814 794.558 641.485 824.407 628.706 886.883C618.653 936.058 614.876 1000.08 626.378 1060.16C645.282 1158.89 586.687 1191.36 541.472 1175.19C464.085 1147.52 504.775 1061.89 516.754 1008.5C531.288 943.72 539.634 869.07 491.136 890.971C471.603 899.795 445.663 978.894 421.931 885.662C405.1 819.558 349.284 889.743 392.451 971.256C450.267 1080.43 300.94 1118.57 315.617 979.512C323.316 906.577 320.3 814.503 268.217 851.214C213.887 889.505 274.814 989.516 204.949 982.606C163.549 978.51 177.009 934.374 185.327 893.341C200.244 819.752 123.085 745.787 83.203 691.085C30.8676 619.307 0 531.012 0 435.534C0 194.998 195.876 0.000584614 437.5 0.000584614Z" fill="#252528"/>
<g filter="url(#filter0_d_33_145)">
<g filter="url(#filter1_d_33_145)">
<path d="M656.098 439.833C656.098 559.363 559.2 656.261 439.67 656.261C320.14 656.261 223.241 559.363 223.241 439.833C223.241 320.302 320.14 223.404 439.67 223.404C559.2 223.404 656.098 320.302 656.098 439.833Z" fill="url(#paint0_linear_33_145)"/>
</g>
<path d="M432.86 321.901L350.327 291.888C348.906 291.372 347.615 290.55 346.546 289.481C345.477 288.412 344.655 287.122 344.138 285.701L314.126 203.167C313.401 201.171 312.078 199.447 310.339 198.228C308.599 197.01 306.527 196.356 304.403 196.356C302.279 196.356 300.206 197.01 298.467 198.228C296.727 199.447 295.405 201.171 294.679 203.167L264.667 285.701C264.15 287.122 263.328 288.412 262.259 289.481C261.19 290.55 259.9 291.372 258.479 291.888L175.945 321.901C173.949 322.627 172.225 323.949 171.007 325.689C169.788 327.428 169.135 329.5 169.135 331.624C169.135 333.748 169.788 335.82 171.007 337.56C172.225 339.299 173.949 340.622 175.945 341.348L258.479 371.36C259.9 371.877 261.19 372.698 262.259 373.767C263.328 374.836 264.15 376.127 264.667 377.548L294.679 460.082C295.405 462.078 296.727 463.802 298.467 465.02C300.206 466.239 302.279 466.892 304.403 466.892C306.526 466.892 308.599 466.239 310.338 465.02C312.078 463.802 313.401 462.078 314.126 460.082L344.138 377.548C344.655 376.127 345.477 374.836 346.546 373.767C347.615 372.698 348.906 371.877 350.327 371.36L432.86 341.348C434.856 340.622 436.58 339.299 437.799 337.56C439.017 335.82 439.671 333.748 439.671 331.624C439.671 329.5 439.017 327.428 437.799 325.689C436.58 323.949 434.856 322.627 432.86 321.901Z" fill="url(#paint1_radial_33_145)"/>
<path d="M678.385 581.828L620.612 560.819C619.617 560.458 618.714 559.882 617.965 559.134C617.217 558.386 616.642 557.482 616.28 556.488L595.272 498.714C594.763 497.317 593.838 496.11 592.62 495.257C591.402 494.404 589.952 493.947 588.465 493.947C586.978 493.947 585.527 494.404 584.31 495.257C583.092 496.11 582.166 497.317 581.658 498.714L560.65 556.488C560.288 557.482 559.713 558.386 558.964 559.134C558.216 559.882 557.313 560.458 556.318 560.819L498.545 581.828C497.147 582.336 495.941 583.262 495.088 584.479C494.235 585.697 493.777 587.148 493.777 588.634C493.777 590.121 494.235 591.571 495.088 592.789C495.941 594.007 497.147 594.933 498.545 595.441L556.318 616.449C557.313 616.811 558.216 617.386 558.964 618.134C559.713 618.883 560.288 619.786 560.65 620.781L581.658 678.554C582.166 679.952 583.092 681.159 584.31 682.011C585.528 682.864 586.978 683.322 588.465 683.322C589.952 683.322 591.402 682.864 592.62 682.011C593.838 681.159 594.763 679.952 595.272 678.554L616.28 620.781C616.642 619.786 617.217 618.883 617.965 618.134C618.714 617.386 619.617 616.811 620.612 616.449L678.385 595.441C679.782 594.933 680.989 594.007 681.842 592.789C682.695 591.571 683.152 590.121 683.152 588.634C683.152 587.148 682.695 585.697 681.842 584.479C680.989 583.262 679.782 582.336 678.385 581.828Z" fill="url(#paint2_radial_33_145)"/>
</g>
<defs>
<filter id="filter0_d_33_145" x="148.135" y="179.356" width="556.018" height="528.966" filterUnits="userSpaceOnUse" color-interpolation-filters="sRGB">
<feFlood flood-opacity="0" result="BackgroundImageFix"/>
<feColorMatrix in="SourceAlpha" type="matrix" values="0 0 0 0 0 0 0 0 0 0 0 0 0 0 0 0 0 0 127 0" result="hardAlpha"/>
<feOffset dy="4"/>
<feGaussianBlur stdDeviation="10.5"/>
<feComposite in2="hardAlpha" operator="out"/>
<feColorMatrix type="matrix" values="0 0 0 0 0.497333 0 0 0 0 0.226667 0 0 0 0 1 0 0 0 0.5 0"/>
<feBlend mode="normal" in2="BackgroundImageFix" result="effect1_dropShadow_33_145"/>
<feBlend mode="normal" in="SourceGraphic" in2="effect1_dropShadow_33_145" result="shape"/>
</filter>
<filter id="filter1_d_33_145" x="214.241" y="214.404" width="450.857" height="450.857" filterUnits="userSpaceOnUse" color-interpolation-filters="sRGB">
<feFlood flood-opacity="0" result="BackgroundImageFix"/>
<feColorMatrix in="SourceAlpha" type="matrix" values="0 0 0 0 0 0 0 0 0 0 0 0 0 0 0 0 0 0 127 0" result="hardAlpha"/>
<feOffset/>
<feGaussianBlur stdDeviation="4.5"/>
<feComposite in2="hardAlpha" operator="out"/>
<feColorMatrix type="matrix" values="0 0 0 0 0.791458 0 0 0 0 0.679167 0 0 0 0 1 0 0 0 0.25 0"/>
<feBlend mode="normal" in2="BackgroundImageFix" result="effect1_dropShadow_33_145"/>
<feBlend mode="normal" in="SourceGraphic" in2="effect1_dropShadow_33_145" result="shape"/>
</filter>
<linearGradient id="paint0_linear_33_145" x1="188.497" y1="738.687" x2="485.389" y2="1241.12" gradientUnits="userSpaceOnUse">
<stop stop-color="#7F3AFF"/>
<stop offset="1" stop-color="#CAADFF"/>
</linearGradient>
<radialGradient id="paint1_radial_33_145" cx="0" cy="0" r="1" gradientUnits="userSpaceOnUse" gradientTransform="translate(372.037 421.803) rotate(-131.987) scale(303.307)">
<stop stop-color="#7F3AFF"/>
<stop offset="0.597104" stop-color="#FFADF7"/>
</radialGradient>
<radialGradient id="paint2_radial_33_145" cx="0" cy="0" r="1" gradientUnits="userSpaceOnUse" gradientTransform="translate(635.809 651.759) rotate(-131.987) scale(212.315)">
<stop stop-color="#7F3AFF"/>
<stop offset="0.597104" stop-color="#FFADF7"/>
</radialGradient>
</defs>
</svg>
